<?xml version="1.0" standalone="no"?><!-- Generator: Gravit.io --><svg xmlns="http://www.w3.org/2000/svg" xmlns:xlink="http://www.w3.org/1999/xlink" style="isolation:isolate" viewBox="0 0 283.465 283.465" width="283.465" height="283.465"><defs><clipPath id="_clipPath_HnlSMDt2gwf1n1aggrelrYI3EokCiYCP"><rect width="283.465" height="283.465"/></clipPath></defs><g clip-path="url(#_clipPath_HnlSMDt2gwf1n1aggrelrYI3EokCiYCP)"><rect width="283.465" height="283.465" style="fill:rgb(97,186,173)"/><g style="isolation:isolate" id="Layer 1"/><g style="isolation:isolate" id="Layer 0"><path d=" M 216.95 174.574 L 193.472 174.574 L 169.993 174.574 L 158.253 154.241 L 146.514 133.908 L 158.253 113.575 L 169.993 93.242 L 193.472 93.242 L 216.95 93.242 L 228.69 113.575 L 240.429 133.908 L 228.69 154.241 L 216.95 174.574 Z  M 146.514 215.241 L 123.035 215.241 L 99.557 215.241 L 87.817 194.907 L 76.078 174.574 L 87.817 154.241 L 99.557 133.908 L 123.035 133.908 L 146.514 133.908 L 158.254 154.241 L 169.993 174.574 L 158.254 194.907 L 146.514 215.241 Z  M 216.95 255.907 L 193.472 255.907 L 169.993 255.907 L 158.253 235.574 L 146.514 215.241 L 158.253 194.907 L 169.993 174.574 L 193.472 174.574 L 216.95 174.574 L 228.69 194.907 L 240.429 215.241 L 228.69 235.574 L 216.95 255.907 Z  M 287.386 296.573 L 263.908 296.573 L 240.429 296.573 L 228.69 276.24 L 216.95 255.907 L 228.69 235.574 L 240.429 215.241 L 263.908 215.241 L 287.386 215.241 L 299.126 235.574 L 310.865 255.907 L 299.126 276.24 L 287.386 296.573 Z  M 287.386 215.241 L 263.908 215.241 L 240.429 215.241 L 228.69 194.907 L 216.95 174.574 L 228.69 154.241 L 240.429 133.908 L 263.908 133.908 L 287.386 133.908 L 299.126 154.241 L 310.865 174.574 L 299.126 194.907 L 287.386 215.241 Z  M 216.95 337.24 L 193.472 337.24 L 169.993 337.24 L 158.253 316.906 L 146.514 296.573 L 158.253 276.24 L 169.993 255.907 L 193.472 255.907 L 216.95 255.907 L 228.69 276.24 L 240.429 296.573 L 228.69 316.906 L 216.95 337.24 Z  M 146.514 296.573 L 123.035 296.573 L 99.557 296.573 L 87.817 276.24 L 76.078 255.907 L 87.817 235.574 L 99.557 215.241 L 123.035 215.241 L 146.514 215.241 L 158.254 235.574 L 169.993 255.907 L 158.254 276.24 L 146.514 296.573 Z  M 216.95 174.574 L 193.472 174.574 L 169.993 174.574 L 158.253 154.241 L 146.514 133.908 L 158.253 113.575 L 169.993 93.242 L 193.472 93.242 L 216.95 93.242 L 228.69 113.575 L 240.429 133.908 L 228.69 154.241 L 216.95 174.574 Z " fill-rule="evenodd" fill="none" vector-effect="non-scaling-stroke" stroke-width="2" stroke="rgb(255,255,255)" stroke-linejoin="miter" stroke-linecap="square" stroke-miterlimit="3"/></g></g></svg>
