<?xml version="1.0" encoding="utf-8"?>
<!-- Generator: Adobe Illustrator 15.0.0, SVG Export Plug-In . SVG Version: 6.00 Build 0)  -->
<!DOCTYPE svg PUBLIC "-//W3C//DTD SVG 1.1//EN" "http://www.w3.org/Graphics/SVG/1.1/DTD/svg11.dtd">
<svg version="1.1"
	 id="svg2837" sodipodi:docname="myLogo2.svg" inkscape:version="0.47 r22583" xmlns:inkscape="http://www.inkscape.org/namespaces/inkscape" xmlns:sodipodi="http://sodipodi.sourceforge.net/DTD/sodipodi-0.dtd" xmlns:rdf="http://www.w3.org/1999/02/22-rdf-syntax-ns#" xmlns:svg="http://www.w3.org/2000/svg" xmlns:cc="http://creativecommons.org/ns#" xmlns:dc="http://purl.org/dc/elements/1.1/"
	 xmlns="http://www.w3.org/2000/svg" xmlns:xlink="http://www.w3.org/1999/xlink" x="0px" y="0px" width="200px" height="200px"
	 viewBox="0 0 200 200" enable-background="new 0 0 200 200" xml:space="preserve">
<defs>
	
	
		<inkscape:perspective  sodipodi:type="inkscape:persp3d" id="perspective2845" inkscape:vp_x="0 : 0.5 : 1" inkscape:vp_y="0 : 1000 : 0" inkscape:vp_z="1 : 0.5 : 1" inkscape:persp3d-origin="0.5 : 0.33333333 : 1">
		</inkscape:perspective>
</defs>
<sodipodi:namedview  pagecolor="#ffffff" bordercolor="#666666" id="namedview2839" borderopacity="1" objecttolerance="10" gridtolerance="10" guidetolerance="10" inkscape:pageopacity="0" inkscape:pageshadow="2" inkscape:window-width="747" inkscape:window-height="541" showgrid="false" inkscape:zoom="1.18" inkscape:cx="100" inkscape:cy="100" inkscape:window-x="0" inkscape:window-y="0" inkscape:window-maximized="0" inkscape:current-layer="g2847">
	</sodipodi:namedview>
<g id="g2847" transform="matrix(1.25,0,0,-1.25,0,200)" inkscape:groupmode="layer" inkscape:label="myLogo">
	<g id="g2849">
		<path id="path2851" fill="#61BAAD" d="M0,160h160V0H0V160z"/>
		<path id="path2853" fill="#FFFFFF" d="M64.754,58.914c0-1.246-0.356-2.519-0.996-3.633c-0.641-1.109-1.582-1.992-2.809-2.664
			c-1.226-0.648-2.5-0.966-3.898-0.966H33.898c-1.394,0-2.714,0.317-3.941,0.966c-1.227,0.672-2.168,1.555-2.809,2.664
			c-0.64,1.114-0.769,2.387-0.769,3.633v1.93c0,1.242,0.172,2.516,0.816,3.63c0.641,1.109,1.535,1.991,2.762,2.664
			c1.227,0.648,2.547,0.964,3.941,0.964h11.918c3.286,0,6.098,1.141,8.383,3.398c2.301,2.258,3.442,4.934,3.442,7.996
			c0,2.125-0.653,4.234-1.993,6.34c-1.339,2.105-3.824,4.512-7.429,7.211c-3.043,2.277-4.848,3.691-5.395,4.226
			c-1,1.016-1.66,1.942-2.039,2.805c-0.375,0.86-0.586,1.746-0.586,2.664c0,1.512,0.528,2.778,1.582,3.813
			c1.078,1.035,2.446,1.562,4.125,1.562c1.301,0,2.532-0.34,3.625-1.012c1.114-0.667,2.418-2.074,3.989-4.179l3.394,2.617
			c-1.906,2.641-3.719,4.445-5.434,5.422c-1.699,0.996-3.519,1.515-5.484,1.515c-1.848,0-3.578-0.449-5.164-1.332
			c-1.566-0.859-2.758-2.023-3.625-3.535c-0.867-1.515-1.312-3.218-1.312-5.054c0-2.317,0.746-4.442,2.218-6.434
			c0.848-1.187,3.004-3.129,6.481-5.789c3.453-2.641,5.808-4.875,7.113-6.754c0.941-1.359,1.449-2.672,1.449-4.086
			c0-1.246-0.355-2.52-0.996-3.634c-0.644-1.109-1.539-1.991-2.765-2.663c-1.227-0.648-2.543-0.965-3.942-0.965H33.539
			c-3.285,0-6.098-1.141-8.383-3.398c-2.304-2.258-2.902-4.93-2.902-7.992v-1.93c0-3.062,0.598-5.738,2.902-7.996
			c2.285-2.258,5.051-3.398,8.336-3.398h23.922c3.285,0,6.098,1.14,8.383,3.398c2.301,2.258,3.441,4.934,3.441,7.996v40.703
			l16.176-30.461h1.043l15.902,30.231V79.449c0-3.062,0.598-5.691,2.898-7.949c2.285-2.258,5.055-3.398,8.336-3.398h12.324
			c3.285,0,6.098,1.141,8.384,3.398c2.303,2.258,3.445,4.888,3.445,7.949c0,2.125-0.656,4.281-1.996,6.387
			c-1.34,2.105-3.823,4.465-7.43,7.164c-3.039,2.281-4.844,3.691-5.391,4.227c-1,1.015-1.706,1.988-2.086,2.851
			c-0.375,0.86-0.542,1.746-0.542,2.664c0,1.512,0.527,2.778,1.586,3.813c1.073,1.035,2.441,1.562,4.12,1.562
			c1.305,0,2.531-0.34,3.625-1.012c1.117-0.667,2.422-2.074,3.988-4.179l3.399,2.617c-1.908,2.641-3.719,4.445-5.438,5.422
			c-1.699,0.996-3.52,1.515-5.48,1.515c-1.852,0-3.581-0.449-5.167-1.332c-1.567-0.859-2.755-2.07-3.622-3.582
			c-0.872-1.511-1.316-3.171-1.316-5.007c0-2.317,0.75-4.489,2.223-6.481c0.847-1.183,3.005-3.082,6.477-5.742
			c3.456-2.641,5.812-4.922,7.114-6.797c0.945-1.359,1.448-2.676,1.448-4.09c0-1.246-0.356-2.473-0.995-3.587
			c-0.641-1.109-1.583-1.991-2.809-2.663c-1.227-0.648-2.5-1.009-3.898-1.009h-11.551c-1.399,0-2.715,0.36-3.941,1.009
			c-1.227,0.672-2.167,1.555-2.809,2.663c-0.645,1.114-0.774,2.341-0.774,3.587v31.93h-3.756L85.957,76.737l-16.945,34.641h-4.258
			V58.914z"/>
	</g>
</g>
</svg>
