<?xml version="1.0" encoding="utf-8"?>
<!-- Generator: Adobe Illustrator 15.0.0, SVG Export Plug-In . SVG Version: 6.00 Build 0)  -->
<!DOCTYPE svg PUBLIC "-//W3C//DTD SVG 1.1//EN" "http://www.w3.org/Graphics/SVG/1.1/DTD/svg11.dtd">
<svg version="1.1" id="Layer_1" xmlns="http://www.w3.org/2000/svg" xmlns:xlink="http://www.w3.org/1999/xlink" x="0px" y="0px"
	 width="360.606px" height="381.818px" viewBox="0 0 360.606 381.818" enable-background="new 0 0 360.606 381.818"
	 xml:space="preserve">
<path fill="#FFFFFF" d="M195.474,344.935c3.653-1.294,4.894-2.36,8.494-7.294c5.528-7.591,10.072-11.42,16.759-14.156
	c3.438-1.403,4.881-1.457,40.583-1.673l37.01-0.216l2.454-2.318l2.452-2.319v-46.286v-46.285l-1.792-2.144l-1.807-2.13H262.94
	c-33.976,0-36.969,0.094-40.461,1.294c-7.173,2.467-11.46,5.838-16.759,13.146c-5.649,7.819-8.318,9.208-17.743,9.182
	c-9.937-0.014-12.298-1.375-18.983-10.921c-2.049-2.912-8.507-8.453-11.379-9.761c-6.471-2.939-6.754-2.953-47.389-2.926
	c-42.689,0.027-40.839-0.162-42.095,4.247c-0.905,3.114-0.905,90.32-0.015,92.666c0.366,0.971,1.527,2.319,2.575,3.007
	c1.768,1.159,4.881,1.28,41.596,1.604l39.664,0.351l5.22,2.507c6.109,2.926,10.73,6.823,14.13,11.919
	c3.21,4.813,5.823,7.227,9.195,8.453C184.16,346.229,191.739,346.243,195.474,344.935z M49.727,365.172
	c-17.635-6.809-28.73-20.75-30.944-38.83c-1.131-9.249-0.616-236.592,0.557-241.513c0.835-3.546,1.225-4.584,3.855-10.072
	c6.834-14.291,22.973-25.252,37.183-25.252c7.121,0,8.847,1.146,17.15,11.339c2.654,3.249,5.15,6.256,5.554,6.687
	c0.393,0.431,3.697,4.328,7.32,8.656c16.529,19.711,18.528,21.855,22.101,23.797c9.222,5.016,18.738,5.352,27.975,1.011
	c4.045-1.901,10.302-8.251,12.525-12.688l1.739-3.478l0.352-29.675l0.335-29.675l1.739-1.874c1.67-1.793,1.957-1.847,6.837-1.442
	c14.113,1.159,29.769,9.613,38.761,20.911c2.724,3.438,6.566,9.168,6.566,9.802c0,0.175,0.607,1.658,1.362,3.276
	c2.144,4.678,3.613,11.406,4.193,19.293c0.593,8.022,1.672,11.676,4.813,16.247c2.885,4.193,6.593,7.267,11.514,9.559
	c8.238,3.829,16.57,3.722,25.091-0.323c5.177-2.454,6.728-3.991,19.105-18.89c4.099-4.934,7.833-9.37,17.284-20.479
	c9.586-11.285,10.787-12.121,17.487-12.081c17.406,0.107,34.893,14.278,40.272,32.654c1.456,4.921,1.456,5.34,1.456,125.901
	c0,134.367,0.363,124.066-4.8,134.327c-5.366,10.678-16.502,20.008-27.963,23.405c-3.263,0.971-17.811,1.092-134.461,1.052
	l-130.794-0.026L49.727,365.172z"/>
</svg>
